<svg width="30" height="30" viewBox="0 0 30 30" fill="none" xmlns="http://www.w3.org/2000/svg">
<path d="M30 15C30 14.8178 29.9967 14.6362 29.9903 14.4556C29.7037 6.42352 23.1021 0 15 0C6.89795 0 0.29625 6.42352 0.00972656 14.4556C0.00328125 14.6362 0 14.8178 0 15C0 23.2843 7.7052 29.4557 15 29.4557C22.427 29.4557 30 23.2843 30 15Z" fill="#FF5876"/>
<path d="M15 28.9117C6.89807 28.9117 0.297539 22.488 0.0108984 14.4561C0.00439453 14.6369 0 14.8181 0 15.0004C0 23.2847 6.71572 30.0005 15 30.0005C23.2843 30.0005 30 23.2847 30 15.0004C30 14.8181 29.9956 14.6369 29.9892 14.4561C29.7025 22.4881 23.1019 28.9117 15 28.9117Z" fill="#E6485D"/>
<path d="M27.505 14.4557C27.22 7.79551 21.7303 2.4834 14.9999 2.4834C8.26957 2.4834 2.77993 7.79551 2.49493 14.4557C2.48719 14.6362 2.49487 26.7206 14.9999 26.7206C27.505 26.7206 27.5127 14.6362 27.505 14.4557Z" fill="#E4EEF9"/>
<path d="M15 26.4284C8.26973 26.4284 2.78096 21.1162 2.49584 14.4561C2.48811 14.6366 2.48336 14.8179 2.48336 15.0004C2.48336 21.9132 8.08727 27.5171 15 27.5171C21.9128 27.5171 27.5167 21.9132 27.5167 15.0004C27.5167 14.818 27.5119 14.6366 27.5042 14.4561C27.2191 21.1162 21.7304 26.4284 15 26.4284Z" fill="#D5E0F2"/>
<path d="M19.5466 10.608C19.1898 10.2562 18.6153 10.2601 18.2635 10.6168L16.1346 12.7752L16.3485 13.8028L17.343 14.1341L19.5554 11.891C19.9072 11.5343 19.9033 10.9599 19.5466 10.608Z" fill="#405B6C"/>
<path d="M13.7157 12.8578L8.88748 8.55514C8.51336 8.22174 7.9399 8.25479 7.60656 8.62891C7.27322 9.00297 7.30621 9.57649 7.68033 9.90983L12.6037 14.2972L13.6296 13.955L13.7157 12.8578Z" fill="#405B6C"/>
<path d="M21.424 20.8494C21.321 20.8494 21.2176 20.8145 21.1325 20.7431L15.386 15.9162C15.1942 15.7551 15.1693 15.4689 15.3304 15.2772C15.4915 15.0853 15.7777 15.0604 15.9696 15.2216L21.716 20.0485C21.9078 20.2096 21.9328 20.4958 21.7716 20.6875C21.6819 20.7944 21.5534 20.8494 21.424 20.8494Z" fill="#86DCFF"/>
<path d="M12.6037 14.2978L13.4509 15.0529L14.539 14.6831L14.48 13.5394L13.7158 12.8584C13.184 13.1779 12.7816 13.6898 12.6037 14.2978Z" fill="#2D4456"/>
<path d="M16.1346 12.7754L15.4142 13.5057V14.9393H16.549L17.343 14.1342C17.1248 13.5438 16.6896 13.0591 16.1346 12.7754Z" fill="#2D4456"/>
<path d="M16.4522 14.4552C16.2317 13.8675 15.6647 13.4492 15.0001 13.4492C14.3354 13.4492 13.7684 13.8675 13.5479 14.4552C13.4844 14.6246 13.5437 16.0057 15.0001 16.0057C16.4564 16.0057 16.5157 14.6246 16.4522 14.4552Z" fill="#FF5876"/>
<path d="M14.9999 15.4621C14.3353 15.4621 13.7685 15.0437 13.548 14.4561C13.4845 14.6254 13.4495 14.8088 13.4495 15.0004C13.4495 15.8567 14.1437 16.5508 14.9999 16.5508C15.8562 16.5508 16.5503 15.8566 16.5503 15.0004C16.5503 14.8088 16.5153 14.6254 16.4518 14.4561C16.2314 15.0437 15.6646 15.4621 14.9999 15.4621Z" fill="#E6485D"/>
</svg>
