<svg width="29" height="29" viewBox="0 0 29 29" fill="none" xmlns="http://www.w3.org/2000/svg">
<g clip-path="url(#clip0_19_30)">
<path d="M1.81249 1.9732C-0.46643 4.34032 -1.35377e-05 6.85487 -1.35377e-05 14.494C-1.35377e-05 20.8377 -1.10685 27.1972 4.6859 28.6943C6.49478 29.1595 22.5221 29.1595 24.3286 28.6919C26.7404 28.0696 28.7027 26.1133 28.971 22.7022C29.0084 22.2261 29.0084 6.77028 28.9698 6.28453C28.6846 2.65107 26.448 0.557027 23.5009 0.132902C22.8254 0.0350266 22.6901 0.00602657 19.2246 -1.50986e-05C6.93219 0.00602657 4.23761 -0.541349 1.81249 1.9732Z" fill="url(#paint0_linear_19_30)"/>
<path d="M14.4976 3.79305C10.1101 3.79305 5.94379 3.40276 4.35242 7.48692C3.69508 9.17375 3.79054 11.3645 3.79054 14.5013C3.79054 17.2539 3.70233 19.8409 4.35242 21.5145C5.94017 25.601 10.1403 25.2095 14.4952 25.2095C18.6965 25.2095 23.0284 25.647 24.6391 21.5145C25.2977 19.8107 25.201 17.6526 25.201 14.5013C25.201 10.318 25.4318 7.61742 23.403 5.58984C21.3488 3.53567 18.5709 3.79305 14.4927 3.79305H14.4976ZM13.5382 5.72276C22.6901 5.70826 23.8549 4.69084 23.2121 18.8247C22.9837 23.8236 19.1775 23.275 14.4988 23.275C5.96796 23.275 5.72267 23.0309 5.72267 14.4965C5.72267 5.86292 6.39933 5.72759 13.5382 5.72034V5.72276ZM20.213 7.50021C19.5037 7.50021 18.9285 8.07538 18.9285 8.78467C18.9285 9.49396 19.5037 10.0691 20.213 10.0691C20.9223 10.0691 21.4975 9.49396 21.4975 8.78467C21.4975 8.07538 20.9223 7.50021 20.213 7.50021ZM14.4976 9.00217C11.461 9.00217 8.99967 11.4648 8.99967 14.5013C8.99967 17.5378 11.461 19.9992 14.4976 19.9992C17.5341 19.9992 19.9943 17.5378 19.9943 14.5013C19.9943 11.4648 17.5341 9.00217 14.4976 9.00217ZM14.4976 10.9319C19.2161 10.9319 19.2222 18.0707 14.4976 18.0707C9.78025 18.0707 9.773 10.9319 14.4976 10.9319Z" fill="white"/>
</g>
<defs>
<linearGradient id="paint0_linear_19_30" x1="1.86809" y1="27.1477" x2="28.8205" y2="3.82074" gradientUnits="userSpaceOnUse">
<stop stop-color="#FFDD55"/>
<stop offset="0.5" stop-color="#FF543E"/>
<stop offset="1" stop-color="#C837AB"/>
</linearGradient>
<clipPath id="clip0_19_30">
<rect width="29" height="29" fill="white"/>
</clipPath>
</defs>
</svg>
