<svg width="24" height="22" viewBox="0 0 24 22" fill="none" xmlns="http://www.w3.org/2000/svg">
<path d="M11.0554 0.717389C11.3667 -0.178171 12.6333 -0.178173 12.9446 0.717387L15.0631 6.81222C15.2005 7.20729 15.5691 7.47516 15.9873 7.48368L22.4385 7.61515C23.3864 7.63447 23.7778 8.83901 23.0223 9.41181L17.8804 13.3101C17.5471 13.5628 17.4063 13.9962 17.5274 14.3965L19.3959 20.5726C19.6705 21.4801 18.6458 22.2246 17.8676 21.683L12.5712 17.9975C12.2279 17.7586 11.7721 17.7586 11.4288 17.9975L6.13242 21.683C5.35418 22.2246 4.32953 21.4801 4.60408 20.5726L6.47258 14.3965C6.5937 13.9962 6.45287 13.5628 6.11957 13.3101L0.977713 9.41181C0.222181 8.83901 0.613559 7.63447 1.56148 7.61515L8.01268 7.48368C8.43086 7.47516 8.79955 7.20729 8.93687 6.81222L11.0554 0.717389Z" fill="white"/>
</svg>
