<?xml version="1.0" encoding="utf-8"?>
<!-- Generator: Adobe Illustrator 24.1.2, SVG Export Plug-In . SVG Version: 6.00 Build 0)  -->
<svg version="1.1" id="Слой_1" xmlns="http://www.w3.org/2000/svg" xmlns:xlink="http://www.w3.org/1999/xlink" x="0px" y="0px"
	 viewBox="0 0 60 60" style="enable-background:new 0 0 60 60;" xml:space="preserve">
<style type="text/css">
	.st0{clip-path:url(#SVGID_2_);}
	.st1{fill:#FF5C00;}
	.st2{clip-path:url(#SVGID_2_);fill:none;stroke:#FF5C00;stroke-width:2;stroke-miterlimit:10;}
</style>
<g>
	<defs>
		<rect id="SVGID_1_" x="0" y="0" width="60" height="60"/>
	</defs>
	<clipPath id="SVGID_2_">
		<use xlink:href="#SVGID_1_"  style="overflow:visible;"/>
	</clipPath>
	<g class="st0">
		<path class="st1" d="M21.4,19.7c-1.5,0-2.7,1.2-2.7,2.7c0,1.5,1.2,2.7,2.7,2.7c1.5,0,2.7-1.2,2.7-2.7
			C24.1,20.9,22.9,19.7,21.4,19.7z M21.4,24.2c-1,0-1.8-0.8-1.8-1.8c0-1,0.8-1.8,1.8-1.8c1,0,1.8,0.8,1.8,1.8
			C23.2,23.4,22.4,24.2,21.4,24.2z"/>
		<path class="st1" d="M42.6,31.5c-0.6,0-1.1,0.4-1.3,0.9h-1v-3.6h-0.9v3.6h-0.9v-1.8h-0.9v1.8h-0.9v-2.7h-0.9v2.7h-0.3l-4.2-3.9
			c0.3-0.4,0.4-0.9,0.4-1.5c0-0.7-0.3-1.4-0.8-1.9l2.8-3.1H35c0.2,2.3,2.2,4.1,4.5,4.1c2.5,0,4.5-2,4.5-4.5S42,17,39.5,17
			c-2.3,0-4.3,1.8-4.5,4.1h-1.6l-3.1,3.4c-0.4-0.2-0.8-0.3-1.2-0.3c0,0,0,0,0,0L28.6,22h-1.7v-0.8l-1.2-0.4c0-0.1-0.1-0.1-0.1-0.2
			l0.6-1.1l-1.7-1.7l-1.1,0.6c-0.1,0-0.1-0.1-0.2-0.1L22.6,17h-2.5l-0.4,1.2c-0.1,0-0.1,0.1-0.2,0.1l-1.1-0.6l-1.7,1.7l0.6,1.1
			c0,0.1-0.1,0.1-0.1,0.2L16,21.2v2.5l1.2,0.4c0,0.1,0.1,0.1,0.1,0.2l-0.6,1.1l1.7,1.7l1.1-0.6c0.1,0,0.1,0.1,0.2,0.1l0.4,1.2h2.5
			l0.4-1.2c0.1,0,0.1-0.1,0.2-0.1l1.1,0.6l1.7-1.7l-0.6-1.1c0-0.1,0.1-0.1,0.1-0.2l1.2-0.4v-0.8h1l0.3,1.5c-1,0.4-1.8,1.4-1.8,2.5
			c0,0.7,0.3,1.4,0.8,1.9l-2.4,3.5h-0.7v-2.7h-0.9v2.7h-0.9v-3.6h-0.9v3.6h-0.9v-1.8h-0.9v1.8h-1c-0.2-0.5-0.7-0.9-1.3-0.9
			c-0.7,0-1.4,0.6-1.4,1.4c0,0.7,0.6,1.4,1.4,1.4c0.6,0,1.1-0.4,1.3-0.9h6.6l2.5-3.6v9.3c-0.1-0.1-0.1-0.2-0.2-0.3l-0.8-4.4h-1.2
			c-0.8,0-1.4,0.6-1.4,1.4v0.3c0,0.1,0,0.2,0,0.2L25,41c0.1,0.4,0.2,0.7,0.5,1l1.1,1.4c0.2,0.2,0.3,0.5,0.3,0.8V45h7.2v-0.7
			c0-0.3,0.1-0.6,0.3-0.8l1-1.3c0.3-0.4,0.5-0.9,0.5-1.4V36c0-0.7-0.6-1.4-1.4-1.4c-0.2,0-0.3,0-0.5,0.1c-0.2-0.6-0.7-1-1.3-1
			c-0.2,0-0.3,0-0.5,0.1v-0.1c0-0.7-0.6-1.4-1.4-1.4c-0.2,0-0.3,0-0.5,0.1v-3.2c0.1-0.1,0.2-0.1,0.3-0.2l4.5,4.2h6.1
			c0.2,0.5,0.7,0.9,1.3,0.9c0.7,0,1.4-0.6,1.4-1.4C44,32.1,43.4,31.5,42.6,31.5z M35.9,21.5c0-0.5,0.1-1,0.3-1.4l0.8,0.5
			c-0.1,0.3-0.2,0.6-0.2,0.9c0,0.3,0.1,0.6,0.2,0.9l-0.8,0.5C36,22.5,35.9,22,35.9,21.5z M39.5,19.7c1,0,1.8,0.8,1.8,1.8
			c0,1-0.8,1.8-1.8,1.8s-1.8-0.8-1.8-1.8C37.7,20.5,38.5,19.7,39.5,19.7z M43.1,21.5c0,0.5-0.1,1-0.3,1.4L42,22.5
			c0.1-0.3,0.2-0.6,0.2-0.9c0-0.3-0.1-0.6-0.2-0.9l0.8-0.5C43,20.5,43.1,21,43.1,21.5z M36.6,23.7l0.8-0.5c0.4,0.5,1,0.8,1.6,0.9
			v0.9C38,25,37.2,24.5,36.6,23.7z M39.9,25.1v-0.9c0.7-0.1,1.2-0.5,1.6-0.9l0.8,0.5C41.8,24.5,40.9,25,39.9,25.1z M42.4,19.3
			l-0.8,0.5c-0.4-0.5-1-0.8-1.6-0.9v-0.9C40.9,18.1,41.8,18.6,42.4,19.3z M39,17.9v0.9c-0.7,0.1-1.2,0.5-1.6,0.9l-0.8-0.5
			C37.2,18.6,38,18.1,39,17.9z M25.9,23l-1,0.3l-0.1,0.2c-0.1,0.2-0.1,0.3-0.2,0.5l-0.1,0.2l0.5,1L24.2,26l-1-0.5L23,25.6
			c-0.2,0.1-0.3,0.2-0.5,0.2l-0.2,0.1l-0.3,1h-1.2l-0.3-1l-0.2-0.1c-0.2-0.1-0.3-0.1-0.5-0.2l-0.2-0.1l-1,0.5l-0.8-0.8l0.5-1
			L18.2,24c-0.1-0.2-0.2-0.3-0.2-0.5l-0.1-0.2l-1-0.3v-1.2l1-0.3l0.1-0.2c0.1-0.2,0.1-0.3,0.2-0.5l0.1-0.2l-0.5-1l0.8-0.8l1,0.5
			l0.2-0.1c0.2-0.1,0.3-0.2,0.5-0.2l0.2-0.1l0.3-1H22l0.3,1l0.2,0.1c0.2,0.1,0.3,0.1,0.5,0.2l0.2,0.1l1-0.5l0.8,0.8l-0.5,1l0.1,0.2
			c0.1,0.2,0.2,0.3,0.2,0.5l0.1,0.2l1,0.3L25.9,23L25.9,23z M17.4,33.3c-0.2,0-0.5-0.2-0.5-0.5c0-0.2,0.2-0.5,0.5-0.5
			c0.2,0,0.5,0.2,0.5,0.5C17.8,33.1,17.6,33.3,17.4,33.3z M29.1,25.1c1,0,1.8,0.8,1.8,1.8c0,0.5-0.2,0.9-0.5,1.2
			c-0.1-0.7-0.6-1.2-1.3-1.2c-0.7,0-1.3,0.5-1.3,1.2c-0.3-0.3-0.5-0.8-0.5-1.2C27.3,25.9,28.1,25.1,29.1,25.1z M30.9,33.3
			c0.2,0,0.5,0.2,0.5,0.5v5.4h0.9v-4.1c0-0.2,0.2-0.5,0.5-0.5c0.2,0,0.5,0.2,0.5,0.5v4.1h0.9V36c0-0.2,0.2-0.5,0.5-0.5
			S35,35.7,35,36v4.8c0,0.3-0.1,0.6-0.3,0.8l-1,1.3c-0.3,0.4-0.5,0.8-0.5,1.2h-5.4c0-0.4-0.2-0.9-0.5-1.2l-1.1-1.4
			c-0.1-0.2-0.2-0.4-0.3-0.6L25,36c0,0,0-0.1,0-0.1v-0.3c0-0.3,0.2-0.5,0.5-0.5H26l0.7,3.7c0.1,0.7,0.8,1.3,1.5,1.3h0.5V28.3
			c0-0.2,0.2-0.5,0.5-0.5c0.2,0,0.5,0.2,0.5,0.5v10.8h0.9v-5.4C30.5,33.5,30.7,33.3,30.9,33.3z M42.6,33.3c-0.2,0-0.5-0.2-0.5-0.5
			c0-0.2,0.2-0.5,0.5-0.5c0.2,0,0.5,0.2,0.5,0.5C43.1,33.1,42.9,33.3,42.6,33.3z"/>
	</g>
	<circle class="st2" cx="30" cy="30" r="27"/>
	<circle class="st2" cx="30" cy="30" r="20"/>
</g>
</svg>
