<svg width="60" height="60" viewBox="0 0 60 60" fill="none" xmlns="http://www.w3.org/2000/svg">
<path d="M51.2133 8.78672C45.5469 3.12059 38.0133 0 30 0C21.9867 0 14.4531 3.12059 8.78672 8.78672C3.12059 14.4531 0 21.9867 0 30C0 38.0133 3.12059 45.5469 8.78672 51.2133C14.4531 56.8794 21.9867 60 30 60C38.0133 60 45.5469 56.8794 51.2133 51.2133C56.8794 45.5469 60 38.0133 60 30C60 21.9867 56.8794 14.4531 51.2133 8.78672ZM30 56.4844C15.3964 56.4844 3.51562 44.6036 3.51562 30C3.51562 15.3964 15.3964 3.51562 30 3.51562C44.6036 3.51562 56.4844 15.3964 56.4844 30C56.4844 44.6036 44.6036 56.4844 30 56.4844Z" fill="#FF5C00"/>
<path d="M37.7354 12.2835C36.8459 11.8943 35.8095 12.3004 35.4206 13.1898C35.0317 14.0793 35.4375 15.1157 36.327 15.5047C42.094 18.0263 45.8203 23.7159 45.8203 29.9998C45.8203 38.7231 38.7233 45.8201 30 45.8201C21.2767 45.8201 14.1797 38.7231 14.1797 29.9998C14.1797 23.7159 17.906 18.0263 23.6729 15.5048C24.5624 15.1158 24.9682 14.0794 24.5793 13.19C24.1903 12.3004 23.1539 11.8945 22.2645 12.2836C15.2175 15.3647 10.6641 22.3189 10.6641 29.9998C10.6641 40.6616 19.3382 49.3357 30 49.3357C40.6618 49.3357 49.3359 40.6616 49.3359 29.9998C49.3359 22.3189 44.7825 15.3647 37.7354 12.2835Z" fill="#FF5C00"/>
<path d="M30 25.8984C30.9708 25.8984 31.7578 25.1114 31.7578 24.1406V10.0781C31.7578 9.10734 30.9708 8.32031 30 8.32031C29.0292 8.32031 28.2422 9.10734 28.2422 10.0781V24.1406C28.2422 25.1114 29.0292 25.8984 30 25.8984Z" fill="#FF5C00"/>
</svg>
