<svg width="29" height="29" viewBox="0 0 29 29" fill="none" xmlns="http://www.w3.org/2000/svg">
<path d="M14.5 29C22.5081 29 29 22.5081 29 14.5C29 6.49187 22.5081 0 14.5 0C6.49187 0 0 6.49187 0 14.5C0 22.5081 6.49187 29 14.5 29Z" fill="#4D76A1"/>
<path fill-rule="evenodd" clip-rule="evenodd" d="M13.9523 20.8593H15.0904C15.0904 20.8593 15.4342 20.8216 15.6097 20.6324C15.7712 20.4587 15.766 20.1325 15.766 20.1325C15.766 20.1325 15.7438 18.6054 16.4525 18.3805C17.1512 18.159 18.0484 19.8564 18.9993 20.5091C19.7184 21.003 20.2648 20.8947 20.2648 20.8947L22.8074 20.8593C22.8074 20.8593 24.1376 20.7774 23.5069 19.7316C23.4552 19.646 23.1396 18.958 21.6164 17.5441C20.0221 16.0643 20.2356 16.3037 22.1561 13.744C23.3257 12.1851 23.7933 11.2334 23.6472 10.8258C23.5079 10.4375 22.6477 10.5402 22.6477 10.5402L19.7848 10.558C19.7848 10.558 19.5726 10.529 19.4152 10.6231C19.2614 10.7154 19.1624 10.9305 19.1624 10.9305C19.1624 10.9305 18.7093 12.1368 18.105 13.1627C16.8302 15.3274 16.3205 15.4416 16.1121 15.3072C15.6275 14.994 15.7485 14.0487 15.7485 13.3772C15.7485 11.2794 16.0666 10.4047 15.1289 10.1783C14.8177 10.1031 14.5887 10.0535 13.7928 10.0454C12.7713 10.0348 11.9067 10.0485 11.4172 10.2884C11.0915 10.4479 10.8403 10.8033 10.9933 10.8237C11.1825 10.849 11.611 10.9392 11.8382 11.2486C12.1316 11.6477 12.1213 12.5441 12.1213 12.5441C12.1213 12.5441 12.2898 15.0136 11.7276 15.3204C11.3417 15.5308 10.8123 15.1012 9.67582 13.1373C9.09347 12.1313 8.6538 11.0194 8.6538 11.0194C8.6538 11.0194 8.56902 10.8116 8.41782 10.7004C8.2343 10.5657 7.97789 10.5228 7.97789 10.5228L5.25743 10.5407C5.25743 10.5407 4.84903 10.5521 4.69912 10.7296C4.56574 10.8876 4.68852 11.2143 4.68852 11.2143C4.68852 11.2143 6.81836 16.1972 9.22995 18.7083C11.4412 21.0105 13.9523 20.8593 13.9523 20.8593Z" fill="white"/>
</svg>
