<svg width="60" height="60" viewBox="0 0 60 60" fill="none" xmlns="http://www.w3.org/2000/svg">
<g clip-path="url(#clip0_91_104)">
<path d="M59.3172 42.8411C58.8373 41.639 57.4739 41.0534 56.2718 41.5333C55.0697 42.0132 54.4841 43.3765 54.964 44.5787C55.5741 46.1071 55.374 47.8523 54.4288 49.2473C53.4831 50.643 51.9689 51.4435 50.2746 51.4435H9.73423C7.88606 51.4435 6.24485 50.4792 5.34379 48.8636C4.44133 47.2454 4.48375 45.3384 5.45723 43.7621L25.7274 10.9433C26.6504 9.44894 28.2492 8.55679 30.0044 8.55679C31.7597 8.55679 33.3583 9.44894 34.2814 10.9433L49.2729 35.2157C49.9531 36.3169 51.3973 36.6585 52.4983 35.978C53.5994 35.298 53.9408 33.8539 53.2606 32.7527L38.269 8.48026C36.4858 5.59323 33.3963 3.86963 30.0043 3.86963C26.6123 3.86963 23.5228 5.59334 21.7396 8.48026L1.46945 41.2992C-0.409777 44.3421 -0.491574 48.0234 1.25042 51.1468C2.99101 54.2675 6.16246 56.1306 9.73423 56.1306H50.2746C53.5486 56.1306 56.477 54.5798 58.309 51.8763C60.1273 49.1929 60.5041 45.8152 59.3172 42.8411Z" fill="#FF5C00"/>
<path d="M30.0058 46.8736C31.3001 46.8736 32.3493 45.8244 32.3493 44.53C32.3493 43.2357 31.3001 42.1865 30.0058 42.1865H30.0046C28.7103 42.1865 27.6617 43.2357 27.6617 44.53C27.6617 45.8244 28.7115 46.8736 30.0058 46.8736Z" fill="#FF5C00"/>
<path d="M32.3483 36.3279V19.1028C32.3483 17.8085 31.2991 16.7593 30.0048 16.7593C28.7104 16.7593 27.6612 17.8085 27.6612 19.1028V36.3279C27.6612 37.6222 28.7104 38.6714 30.0048 38.6714C31.2991 38.6714 32.3483 37.6222 32.3483 36.3279Z" fill="#FF5C00"/>
</g>
<defs>
<clipPath id="clip0_91_104">
<rect width="60" height="60" fill="white"/>
</clipPath>
</defs>
</svg>
