<svg width="60" height="60" viewBox="0 0 60 60" fill="none" xmlns="http://www.w3.org/2000/svg">
<path d="M51.2133 8.78672C45.5469 3.12059 38.0133 0 30 0C21.9867 0 14.4531 3.12059 8.78672 8.78672C3.12059 14.4531 0 21.9867 0 30C0 38.0133 3.12059 45.5469 8.78672 51.2133C14.4531 56.8794 21.9867 60 30 60C38.0133 60 45.5469 56.8794 51.2133 51.2133C56.8794 45.5469 60 38.0133 60 30C60 21.9867 56.8794 14.4531 51.2133 8.78672ZM49.9703 49.9703C44.636 55.3045 37.5438 58.2422 30 58.2422C22.4562 58.2422 15.364 55.3045 10.0297 49.9703C4.69547 44.636 1.75781 37.5438 1.75781 30C1.75781 22.4562 4.69547 15.364 10.0297 10.0297C15.364 4.69547 22.4562 1.75781 30 1.75781C37.5438 1.75781 44.636 4.69547 49.9703 10.0297C55.3045 15.364 58.2422 22.4562 58.2422 30C58.2422 37.5438 55.3045 44.636 49.9703 49.9703Z" fill="#FF5C00"/>
<path d="M30 5.63647C16.5659 5.63647 5.63637 16.566 5.63637 30.0001C5.63637 43.4342 16.5659 54.3637 30 54.3637C43.4342 54.3637 54.3637 43.4342 54.3637 30.0001C54.3637 16.566 43.4342 5.63647 30 5.63647ZM30 52.6059C17.5351 52.6059 7.39418 42.465 7.39418 30.0001C7.39418 17.5352 17.5351 7.39429 30 7.39429C39.1956 7.39429 47.1254 12.9138 50.6531 20.8134L48.6135 21.1534C47.4437 18.7008 45.7701 16.4611 43.7407 14.644C43.3791 14.3202 42.8234 14.3509 42.4997 14.7124C42.1759 15.0741 42.2066 15.6296 42.5681 15.9534C44.3623 17.5598 45.8523 19.5269 46.9163 21.6816C45.8105 22.3275 45.0906 23.5219 45.0906 24.8723V29.7094C44.632 29.9027 44.0395 30.0606 43.1463 30.0606C41.7345 30.0606 41.0659 29.6789 40.2918 29.2369C39.4256 28.7423 38.4441 28.1818 36.5657 28.1818C34.6882 28.1818 33.7071 28.7425 32.8416 29.237C32.0681 29.6789 31.4002 30.0606 29.9896 30.0606C28.5805 30.0606 27.9132 29.679 27.1406 29.2371C26.2757 28.7425 25.2953 28.1818 23.4191 28.1818C21.5421 28.1818 20.5614 28.7425 19.6959 29.237C19.2745 29.4778 19.1282 30.0148 19.369 30.4362C19.6098 30.8576 20.1466 31.0039 20.5682 30.7631C21.3413 30.3212 22.009 29.9396 23.419 29.9396C24.8279 29.9396 25.4952 30.3212 26.2679 30.7631C27.1329 31.2578 28.1133 31.8184 29.9895 31.8184C31.8669 31.8184 32.848 31.2578 33.7136 30.7632C34.487 30.3213 35.155 29.9396 36.5657 29.9396C37.9776 29.9396 38.6461 30.3213 39.4202 30.7634C40.2864 31.2579 41.2679 31.8184 43.1463 31.8184C43.9324 31.8184 44.5641 31.7176 45.0906 31.5682V35.1279C45.0906 36.4787 45.8107 37.6733 46.9171 38.3191C43.756 44.7395 37.1961 48.8484 29.9999 48.8484C19.6069 48.8484 11.1516 40.3931 11.1516 30.0001C11.1516 30 11.1516 29.9999 11.1516 29.9998C11.9997 30.1232 12.5311 30.425 13.1225 30.7632C13.9877 31.2579 14.9684 31.8185 16.845 31.8185C17.3304 31.8185 17.7239 31.425 17.7239 30.9396C17.7239 30.4542 17.3304 30.0607 16.845 30.0607C15.4355 30.0607 14.768 29.6791 13.9951 29.2372C13.2914 28.8349 12.5112 28.389 11.2348 28.2366C12.1272 18.6674 20.2017 11.1518 30 11.1518C33.4975 11.1518 36.9115 12.1164 39.8732 13.9414C40.2864 14.1961 40.8279 14.0675 41.0826 13.6542C41.3372 13.2409 41.2086 12.6995 40.7953 12.4448C37.5563 10.449 33.8233 9.39398 30 9.39398C18.6377 9.39398 9.39387 18.6378 9.39387 30.0001C9.39387 41.3624 18.6377 50.6062 30 50.6062C37.9595 50.6062 45.207 46.0082 48.6145 38.8471L50.6531 39.1868C47.1254 47.0864 39.1956 52.6059 30 52.6059ZM48.469 37.0409C47.5301 36.8844 46.8485 36.0799 46.8485 35.128V24.8725C46.8485 23.9205 47.53 23.116 48.469 22.9596L51.3197 22.4845C52.1515 24.8371 52.6058 27.3664 52.6058 30.0003C52.6058 32.6343 52.1515 35.1633 51.3197 37.5159L48.469 37.0409Z" fill="#FF5C00"/>
<path d="M26.2425 20.6665C24.7219 20.6665 23.4849 21.9037 23.4849 23.4242C23.4849 24.9447 24.722 26.1818 26.2425 26.1818C27.763 26.1818 29.0002 24.9447 29.0002 23.4242C29.0002 21.9037 27.763 20.6665 26.2425 20.6665ZM26.2425 24.424C25.6912 24.424 25.2427 23.9754 25.2427 23.4242C25.2427 22.8729 25.6913 22.4243 26.2425 22.4243C26.7938 22.4243 27.2424 22.8729 27.2424 23.4242C27.2424 23.9754 26.7938 24.424 26.2425 24.424Z" fill="#FF5C00"/>
<path d="M32.8181 15.9697C31.8155 15.9697 30.9998 16.7854 30.9998 17.788C30.9998 18.7907 31.8155 19.6063 32.8181 19.6063C33.8208 19.6063 34.6364 18.7907 34.6364 17.788C34.6364 16.7854 33.8208 15.9697 32.8181 15.9697Z" fill="#FF5C00"/>
<path d="M37.0454 21.606C36.3018 21.606 35.6968 22.211 35.6968 22.9545C35.6968 23.6982 36.3019 24.3031 37.0454 24.3031C37.789 24.3031 38.394 23.6981 38.394 22.9545C38.394 22.211 37.789 21.606 37.0454 21.606Z" fill="#FF5C00"/>
</svg>
