<svg width="60" height="60" viewBox="0 0 60 60" fill="none" xmlns="http://www.w3.org/2000/svg">
<g clip-path="url(#clip0_91_85)">
<path d="M58.5272 7.17226C57.5683 7.01464 56.6649 7.66386 56.5077 8.62187L55.4724 14.9242C52.0382 13.331 48.0663 13.7774 44.9274 16.2885C42.3949 18.3146 38.9919 18.3144 36.4597 16.2885C34.5778 14.7831 32.3747 13.9873 30.0882 13.9873C27.8018 13.9873 25.5984 14.783 23.7169 16.2885C21.1842 18.3146 17.7813 18.3144 15.2491 16.2885C12.0427 13.7234 8.00953 13.3073 4.54055 14.9982L3.49313 8.62187C3.33575 7.66398 2.43247 7.01488 1.47364 7.17226C0.515398 7.32964 -0.133586 8.23375 0.0237967 9.19175L6.00528 45.6054C6.00692 45.6153 6.00856 45.6251 6.01043 45.635C6.77075 49.8167 10.4074 52.8516 14.6577 52.8516H45.343C49.5933 52.8516 53.2299 49.8164 53.9903 45.635C53.992 45.6251 53.9937 45.6153 53.9953 45.6054L59.9768 9.19175C60.1342 8.23375 59.4851 7.32964 58.5272 7.17226ZM50.5287 45.0198C50.0671 47.5218 47.8883 49.3362 45.3428 49.3362H14.6576C12.112 49.3362 9.9334 47.5218 9.47168 45.0198L5.14864 18.7019C7.61965 17.001 10.6363 17.1007 13.0525 19.0337C16.9039 22.1148 22.0719 22.1064 25.9126 19.0337C28.449 17.0046 31.7269 17.0046 34.2632 19.0337C38.1145 22.1148 43.2825 22.1064 47.1233 19.0337C49.4769 17.1509 52.4291 17.0119 54.8687 18.5972L50.5287 45.0198Z" fill="#FF5C00"/>
</g>
<defs>
<clipPath id="clip0_91_85">
<rect width="60" height="60" fill="white"/>
</clipPath>
</defs>
</svg>
