<svg width="60" height="60" viewBox="0 0 60 60" fill="none" xmlns="http://www.w3.org/2000/svg">
<g clip-path="url(#clip0_91_32)">
<path d="M35.1318 13.1454C33.6815 11.4721 32.3428 9.91025 31.3388 8.6831C31.283 8.57154 31.1714 8.51576 31.1157 8.45998C30.5021 7.95797 29.6096 8.06953 29.1076 8.6831C28.1036 9.91025 26.7649 11.4721 25.3146 13.1454C24.9799 13.5359 24.6453 13.8706 24.3664 14.261C22.8603 12.1972 21.1312 10.1891 19.6251 8.45998C18.7884 7.51173 18.0075 6.61927 17.5055 5.94991C17.4497 5.83836 17.3382 5.78258 17.2824 5.7268C16.6688 5.22478 15.7763 5.33634 15.2743 5.94991C14.7165 6.61927 13.9356 7.51174 13.0989 8.51576C9.30594 12.8108 4.11847 18.8349 4.11847 24.0224C4.11847 27.425 5.51295 30.437 7.68835 32.6682C8.58081 33.5607 9.58484 34.2858 10.7004 34.8994C10.5331 35.513 10.3658 36.0707 10.2542 36.6843C10.0311 37.6883 9.91952 38.6924 9.91952 39.6964C9.91952 45.3301 12.2065 50.406 15.8879 54.0317C19.5693 57.7131 24.6453 60.0001 30.2232 60.0001C35.8011 60.0001 40.9328 57.7131 44.5585 54.0317C48.2399 50.3503 50.5269 45.2743 50.5269 39.6964C50.5269 30.9948 41.6022 20.6757 35.1318 13.1454ZM9.64062 30.7717C7.96724 29.0983 6.90743 26.6998 6.90743 24.134C6.96321 19.8947 11.7602 14.3168 15.2186 10.3007C15.609 9.85447 15.9995 9.40823 16.3341 9.01778C16.6688 9.46401 17.0593 9.85447 17.4497 10.3007C19.2347 12.3645 21.3543 14.8188 23.0277 17.3289C23.8086 18.556 24.5337 19.7274 24.9799 20.8988C24.9799 20.8988 24.9799 20.8988 24.9799 20.9546C25.0915 21.2334 25.2031 21.4566 25.2588 21.7355C25.2588 21.7912 25.2588 21.847 25.3146 21.9028C25.3704 22.1259 25.4262 22.349 25.4819 22.5722C25.4819 22.6837 25.5377 22.7953 25.5377 22.9068C25.5935 23.0742 25.5935 23.2415 25.6493 23.3531C25.7051 23.632 25.7051 23.8551 25.7051 24.134C25.7051 25.7516 25.3146 27.2576 24.5895 28.5963C24.1432 29.3772 23.5854 30.1024 22.9719 30.7717C22.3583 31.3853 21.5774 31.9431 20.7965 32.3893C19.4578 33.1144 17.9517 33.5049 16.3341 33.5049C15.9995 33.5049 15.7206 33.5049 15.3859 33.4491C15.3301 33.4491 15.3301 33.4491 15.2743 33.4491C14.9954 33.3933 14.7165 33.3933 14.4376 33.3376C14.3819 33.3376 14.3261 33.3376 14.2703 33.2818C14.0472 33.226 13.7683 33.1702 13.5452 33.1144C13.4894 33.1144 13.4336 33.0587 13.3778 33.0587C11.9834 32.6124 10.7004 31.8315 9.64062 30.7717ZM42.4389 52.0236C39.2594 55.2031 34.9087 57.1553 30.1116 57.1553C25.2588 57.1553 20.908 55.2031 17.7844 52.0236C14.6608 48.8442 12.7085 44.4934 12.7085 39.6964C12.7085 38.9155 12.82 38.0788 12.9874 37.2421C13.0989 36.7959 13.2105 36.3496 13.3221 35.9034C13.4336 35.9034 13.5452 35.9592 13.601 35.9592C13.7125 36.015 13.8798 36.015 13.9914 36.0707H14.0472C14.1587 36.0707 14.3261 36.1265 14.4376 36.1265C14.6608 36.1823 14.8839 36.1823 15.107 36.2381C15.4974 36.2939 15.8879 36.2939 16.2784 36.2939C19.6809 36.2939 22.693 34.8994 24.9242 32.724C25.203 32.4451 25.4819 32.1662 25.7051 31.8315C27.4342 29.7119 28.494 27.0345 28.494 24.0782C28.494 23.7435 28.494 23.4088 28.4383 23.0742C28.4383 22.9068 28.3825 22.7953 28.3825 22.6279C28.3267 22.4606 28.3267 22.2375 28.2709 22.0701C28.2151 21.847 28.1594 21.6797 28.1036 21.4566C28.0478 21.2892 28.0478 21.1777 27.992 21.0103C27.9362 20.7872 27.8247 20.5641 27.7131 20.2852C27.6573 20.1736 27.6573 20.0621 27.6016 19.9505C27.6573 19.9505 27.6573 19.8947 27.6016 19.839C27.1553 18.7792 26.5975 17.7194 25.9282 16.6595C26.4302 16.046 26.9322 15.4882 27.3784 14.9862C28.3825 13.8706 29.2749 12.755 30.1116 11.751C30.9483 12.755 31.8966 13.8148 32.8448 14.9862C39.0363 22.1259 47.5706 31.9989 47.5706 39.6964C47.5706 44.5492 45.6183 48.9 42.4389 52.0236Z" fill="#FF5C00"/>
<path d="M55.8817 11.9738L55.8757 11.9639C55.7537 8.68434 51.6533 3.75721 49.2382 0.990699L48.965 0.539026C48.9093 0.483246 48.8535 0.371688 48.7419 0.315908C48.1283 -0.186106 47.2359 -0.0745469 46.7339 0.539026C46.455 0.929481 45.953 1.48727 45.4509 2.10085C43.1082 4.83403 39.8172 8.62703 39.8172 11.9738C39.8172 14.205 40.7097 16.213 42.16 17.6633C43.6102 19.1135 45.6183 20.006 47.8495 20.006C50.0806 20.006 52.0887 19.1135 53.5389 17.6633C54.9601 16.2422 55.8432 14.285 55.8783 12.1077L55.8817 12.1132C55.8817 12.0957 55.8797 12.0773 55.8796 12.0597C55.8799 12.031 55.8817 12.0027 55.8817 11.9738ZM51.5309 15.6552C50.5826 16.6035 49.2997 17.1613 47.8495 17.1613C46.3992 17.1613 45.1163 16.6035 44.168 15.6552C43.2198 14.707 42.662 13.424 42.662 11.9738C42.662 9.63105 45.5067 6.34008 47.5706 3.94156L47.8495 3.60689L48.1283 3.94156C50.1922 6.34008 53.0369 9.63105 53.0369 11.9738C53.0369 13.424 52.4791 14.707 51.5309 15.6552Z" fill="#FF5C00"/>
</g>
<defs>
<clipPath id="clip0_91_32">
<rect width="60" height="60" fill="white"/>
</clipPath>
</defs>
</svg>
